<svg id="Layer_1" data-name="Layer 1" xmlns="http://www.w3.org/2000/svg" viewBox="0 0 634.96 140.4"><defs><style>.cls-1{fill:#6e6f70;}.cls-2{fill:#f39222;}.cls-3{fill:#6cc9f1;}.cls-4{fill:#404042;}.cls-5{fill:#fbea26;}.cls-6{fill:#ef7925;}.cls-7{fill:#fff;}.cls-8{fill:#929497;}.cls-9{fill:#808284;}.cls-10{fill:#bbbdbf;}.cls-11{fill:#595a5c;}.cls-12{fill:#d0d2d3;}.cls-13{font-size:79.42px;fill:#f6a333;font-family:Ubuntu-Bold, Ubuntu;font-weight:700;letter-spacing:0.28em;}.cls-14{letter-spacing:0.32em;}.cls-15{letter-spacing:0.3em;}.cls-16{fill:#e73a3a;letter-spacing:0.3em;}.cls-17{letter-spacing:0.29em;}.cls-18{letter-spacing:0.3em;}</style></defs><title>logo</title><polygon class="cls-1" points="48.17 107.85 220.14 107.85 220.14 96.72 227.55 96.72 227.55 81.13 48.17 81.13 48.17 107.85"/><path class="cls-2" d="M53.94,112.46H6.43S0,106.18,0,98.73,0,71,4.45,58.8,30.7,19.26,38.58,16s37-2,37-2V96.92H53.94Z"/><path class="cls-3" d="M63.53,22.83c-8.64-.65-20.1-1.31-25.74,5.61S23.44,47.22,21.7,51.5,21.2,63,26.68,63H53.81c5.7,0,9.72-1.3,9.72-6.58Z"/><path class="cls-4" d="M61.71,72.26H50a1.82,1.82,0,0,1-1.81-1.81h0A1.82,1.82,0,0,1,50,68.63H61.71a1.83,1.83,0,0,1,1.82,1.82h0A1.82,1.82,0,0,1,61.71,72.26Z"/><path class="cls-5" d="M8.76,81.13H.52C.08,87.25,0,92.91,0,96.72,11.47,92.51,12.22,81.13,8.76,81.13Z"/><path class="cls-5" d="M5.71,101.09h-3a1.4,1.4,0,0,1-1.4-1.4h0a1.4,1.4,0,0,1,1.4-1.4h3a1.4,1.4,0,0,1,1.4,1.4h0A1.4,1.4,0,0,1,5.71,101.09Z"/><path class="cls-6" d="M6.43,112.46H49.59L47,103.23H.75A25.24,25.24,0,0,0,6.43,112.46Z"/><path class="cls-7" d="M63.53,22.83c-2.05-.15-4.26-.3-6.5-.36L22.11,60.26A5,5,0,0,0,26.68,63h6.43L63.53,29.16Z"/><path class="cls-7" d="M41.3,63,63.53,37.21V33.08L37.1,63Z"/><rect class="cls-8" x="88.17" y="96.64" width="39.54" height="15.32"/><rect class="cls-9" x="88.17" y="107.02" width="39.54" height="4.94"/><rect class="cls-10" x="88.17" y="96.64" width="39.54" height="6.1"/><path class="cls-11" d="M48.6,86.26a28.16,28.16,0,0,0-28.09,26.2H53.94V96.92H70.66A28.12,28.12,0,0,0,48.6,86.26Z"/><circle class="cls-1" cx="48.6" cy="114.44" r="25.7"/><circle class="cls-12" cx="48.6" cy="114.44" r="14.65"/><circle class="cls-7" cx="48.6" cy="114.44" r="5.75"/><path class="cls-11" d="M156.55,107.85h54.78a28.17,28.17,0,0,0-54.78,0Z"/><circle class="cls-1" cx="183.94" cy="114.44" r="25.7"/><circle class="cls-12" cx="183.94" cy="114.44" r="14.65"/><path class="cls-7" d="M189.69,114.44a5.75,5.75,0,1,1-5.75-5.75A5.75,5.75,0,0,1,189.69,114.44Z"/><rect class="cls-12" x="77.99" y="0.26" width="152.46" height="84.52"/><rect class="cls-10" x="80.33" y="2.73" width="3.62" height="79.74"/><rect class="cls-10" x="86.1" y="2.73" width="3.62" height="79.74"/><rect class="cls-10" x="91.86" y="2.73" width="3.62" height="79.74"/><rect class="cls-10" x="97.63" y="2.73" width="3.62" height="79.74"/><rect class="cls-10" x="103.4" y="2.73" width="3.62" height="79.74"/><rect class="cls-10" x="109.16" y="2.73" width="3.62" height="79.74"/><rect class="cls-10" x="114.93" y="2.73" width="3.62" height="79.74"/><rect class="cls-10" x="120.69" y="2.73" width="3.62" height="79.74"/><rect class="cls-10" x="126.46" y="2.73" width="3.62" height="79.74"/><rect class="cls-10" x="132.23" y="2.73" width="3.62" height="79.74"/><rect class="cls-10" x="137.99" y="2.73" width="3.62" height="79.74"/><rect class="cls-10" x="143.76" y="2.73" width="3.62" height="79.74"/><rect class="cls-10" x="149.53" y="2.73" width="3.62" height="79.74"/><rect class="cls-10" x="155.29" y="2.73" width="3.62" height="79.74"/><rect class="cls-10" x="161.06" y="2.73" width="3.62" height="79.74"/><rect class="cls-10" x="166.83" y="2.73" width="3.62" height="79.74"/><rect class="cls-10" x="172.59" y="2.73" width="3.62" height="79.74"/><rect class="cls-10" x="178.36" y="2.73" width="3.62" height="79.74"/><rect class="cls-10" x="184.12" y="2.73" width="3.62" height="79.74"/><rect class="cls-10" x="189.89" y="2.73" width="3.62" height="79.74"/><rect class="cls-10" x="195.66" y="2.73" width="3.62" height="79.74"/><rect class="cls-10" x="201.42" y="2.73" width="3.62" height="79.74"/><rect class="cls-10" x="207.19" y="2.73" width="3.62" height="79.74"/><rect class="cls-10" x="212.96" y="2.73" width="3.62" height="79.74"/><rect class="cls-10" x="218.72" y="2.73" width="3.62" height="79.74"/><rect class="cls-10" x="224.49" y="2.73" width="3.62" height="79.74"/><text class="cls-13" transform="translate(248.62 62.87)">J<tspan class="cls-14" x="64.33" y="0">A</tspan><tspan class="cls-15" x="146.93" y="0">SA</tspan><tspan class="cls-16"><tspan x="0" y="72">HA</tspan><tspan class="cls-17" x="163.21" y="72">R</tspan><tspan class="cls-18" x="239.37" y="72">UM</tspan></tspan></text></svg>